<?xml version="1.0" encoding="UTF-8" standalone="no"?>
<!-- Uploaded to: SVG Repo, www.svgrepo.com, Transformed by: SVG Repo Mixer Tools -->

<svg
   width="800px"
   height="800px"
   viewBox="0 0 24 24"
   fill="none"
   version="1.1"
   id="svg4"
   sodipodi:docname="list-heart-minimalistic-svgrepo-com.svg"
   inkscape:version="1.3.2 (091e20ef0f, 2023-11-25)"
   xmlns:inkscape="http://www.inkscape.org/namespaces/inkscape"
   xmlns:sodipodi="http://sodipodi.sourceforge.net/DTD/sodipodi-0.dtd"
   xmlns="http://www.w3.org/2000/svg"
   xmlns:svg="http://www.w3.org/2000/svg">
  <defs
     id="defs4" />
  <sodipodi:namedview
     id="namedview4"
     pagecolor="#ffffff"
     bordercolor="#999999"
     borderopacity="1"
     inkscape:showpageshadow="2"
     inkscape:pageopacity="0"
     inkscape:pagecheckerboard="0"
     inkscape:deskcolor="#d1d1d1"
     inkscape:zoom="0.5875"
     inkscape:cx="371.06383"
     inkscape:cy="399.14894"
     inkscape:window-width="1366"
     inkscape:window-height="696"
     inkscape:window-x="0"
     inkscape:window-y="0"
     inkscape:window-maximized="1"
     inkscape:current-layer="path4" />
  <g
     id="SVGRepo_bgCarrier"
     stroke-width="0" />
  <g
     id="SVGRepo_tracerCarrier"
     stroke-linecap="round"
     stroke-linejoin="round" />
  <g
     id="SVGRepo_iconCarrier"
     style="fill:#8cdeef;fill-opacity:1;stroke-width:0.99999;stroke-dasharray:none">
    <g
       id="path1">
      <path
         style="color:#000000;stroke-linecap:round;-inkscape-stroke:none"
         d="M 10,16 H 3"
         id="path9" />
      <path
         style="color:#000000;stroke-linecap:round;-inkscape-stroke:none"
         d="M 3,15.5 A 0.49999499,0.49999499 0 0 0 2.5,16 0.49999499,0.49999499 0 0 0 3,16.5 h 7 A 0.49999499,0.49999499 0 0 0 10.5,16 0.49999499,0.49999499 0 0 0 10,15.5 Z"
         id="path10" />
    </g>
    <g
       id="path2">
      <path
         style="color:#000000;stroke-linecap:round;-inkscape-stroke:none"
         d="M 9,11 H 3"
         id="path7" />
      <path
         style="color:#000000;stroke-linecap:round;-inkscape-stroke:none"
         d="M 3,10.5 A 0.49999499,0.49999499 0 0 0 2.5,11 0.49999499,0.49999499 0 0 0 3,11.5 H 9 A 0.49999499,0.49999499 0 0 0 9.5,11 0.49999499,0.49999499 0 0 0 9,10.5 Z"
         id="path8" />
    </g>
    <path
       d="M16.4901 16.3082L16.935 15.7045L16.935 15.7045L16.4901 16.3082ZM17.5 10.1062L16.9641 10.6309C17.1052 10.775 17.2983 10.8562 17.5 10.8562C17.7017 10.8562 17.8948 10.775 18.0359 10.6309L17.5 10.1062ZM18.5099 16.3083L18.9549 16.912L18.9549 16.912L18.5099 16.3083ZM17.5 16.8103L17.5 16.0603H17.5L17.5 16.8103ZM16.935 15.7045C16.2914 15.2302 15.4675 14.5568 14.8118 13.808C14.1328 13.0325 13.75 12.3064 13.75 11.7148H12.25C12.25 12.8758 12.9489 13.9574 13.6832 14.7961C14.4409 15.6614 15.3619 16.4085 16.0451 16.912L16.935 15.7045ZM13.75 11.7148C13.75 10.607 14.2445 10.0237 14.7533 9.83348C15.2705 9.6401 16.0951 9.74331 16.9641 10.6309L18.0359 9.58145C16.88 8.40091 15.4546 7.96984 14.228 8.42849C12.993 8.89028 12.25 10.1453 12.25 11.7148H13.75ZM18.9549 16.912C19.6381 16.4085 20.5591 15.6614 21.3168 14.7961C22.0511 13.9574 22.75 12.8758 22.75 11.7148H21.25C21.25 12.3064 20.8672 13.0326 20.1882 13.808C19.5325 14.5568 18.7086 15.2302 18.065 15.7045L18.9549 16.912ZM22.75 11.7148C22.75 10.1453 22.007 8.89027 20.772 8.42849C19.5454 7.96985 18.12 8.40091 16.9641 9.58145L18.0359 10.6309C18.9049 9.74331 19.7295 9.6401 20.2467 9.83348C20.7555 10.0237 21.25 10.607 21.25 11.7148H22.75ZM16.0451 16.912C16.4368 17.2007 16.8752 17.5603 17.5 17.5603L17.5 16.0603C17.4852 16.0603 17.4682 16.0626 17.399 16.0252C17.3008 15.972 17.178 15.8836 16.935 15.7045L16.0451 16.912ZM18.065 15.7045C17.822 15.8836 17.6992 15.972 17.601 16.0252C17.5318 16.0626 17.5148 16.0603 17.5 16.0603L17.5 17.5603C18.1248 17.5603 18.5632 17.2007 18.9549 16.912L18.065 15.7045Z"
       fill="#1C274C"
       id="path3"
       style="fill:#8cdeef;fill-opacity:1;stroke-width:0.99999;stroke-dasharray:none" />
    <g
       id="path4">
      <path
         style="color:#000000;stroke-linecap:round;-inkscape-stroke:none"
         d="M 20,6 H 9.5 M 3,6 h 2.25"
         id="path5" />
      <path
         style="color:#000000;stroke-linecap:round;-inkscape-stroke:none"
         d="M 3,5.5 A 0.49999499,0.49999499 0 0 0 2.5,6 0.49999499,0.49999499 0 0 0 3,6.5 H 5.25 A 0.49999499,0.49999499 0 0 0 5.75,6 0.49999499,0.49999499 0 0 0 5.25,5.5 Z m 6.5,0 A 0.49999499,0.49999499 0 0 0 9,6 0.49999499,0.49999499 0 0 0 9.5,6.5 H 20 A 0.49999499,0.49999499 0 0 0 20.5,6 0.49999499,0.49999499 0 0 0 20,5.5 Z"
         id="path6" />
    </g>
  </g>
</svg>
