<?xml version="1.0" encoding="UTF-8" standalone="no"?>
<!-- Uploaded to: SVG Repo, www.svgrepo.com, Generator: SVG Repo Mixer Tools -->

<svg
   width="800px"
   height="800px"
   viewBox="0 0 24 24"
   fill="none"
   version="1.1"
   id="svg2"
   sodipodi:docname="trash-svgrepo-com.svg"
   inkscape:version="1.3.2 (091e20ef0f, 2023-11-25)"
   xmlns:inkscape="http://www.inkscape.org/namespaces/inkscape"
   xmlns:sodipodi="http://sodipodi.sourceforge.net/DTD/sodipodi-0.dtd"
   xmlns="http://www.w3.org/2000/svg"
   xmlns:svg="http://www.w3.org/2000/svg">
  <defs
     id="defs2" />
  <sodipodi:namedview
     id="namedview2"
     pagecolor="#ffffff"
     bordercolor="#999999"
     borderopacity="1"
     inkscape:showpageshadow="2"
     inkscape:pageopacity="0"
     inkscape:pagecheckerboard="0"
     inkscape:deskcolor="#d1d1d1"
     inkscape:zoom="0.62375"
     inkscape:cx="237.27455"
     inkscape:cy="476.95391"
     inkscape:window-width="1366"
     inkscape:window-height="696"
     inkscape:window-x="0"
     inkscape:window-y="0"
     inkscape:window-maximized="1"
     inkscape:current-layer="svg2" />
  <path
     d="M8 1.5V2.5H3C2.44772 2.5 2 2.94772 2 3.5V4.5C2 5.05228 2.44772 5.5 3 5.5H21C21.5523 5.5 22 5.05228 22 4.5V3.5C22 2.94772 21.5523 2.5 21 2.5H16V1.5C16 0.947715 15.5523 0.5 15 0.5H9C8.44772 0.5 8 0.947715 8 1.5Z"
     fill="#000000"
     id="path1"
     style="fill:#ffffff;fill-opacity:1" />
  <path
     d="M3.9231 7.5H20.0767L19.1344 20.2216C19.0183 21.7882 17.7135 23 16.1426 23H7.85724C6.28636 23 4.98148 21.7882 4.86544 20.2216L3.9231 7.5Z"
     fill="#000000"
     id="path2"
     style="fill:#ffffff;fill-opacity:1" />
</svg>
